<!-- Save as public/google-logo.svg -->
<svg xmlns="http://www.w3.org/2000/svg" viewBox="0 0 48 48" width="48" height="48">
  <path fill="#4285F4" d="M24 9.5c3.5 0 6.6 1.2 9.1 3.2l6.8-6.8C35.2 2.5 29.9 0 24 0 14.6 0 6.6 5.7 2.7 14l7.9 6.1C12.2 13.1 17.6 9.5 24 9.5z"/>
  <path fill="#34A853" d="M46.1 24.5c0-1.6-.1-3.1-.4-4.6H24v9h12.5c-.5 2.7-2.1 5-4.4 6.5l7.1 5.5c4.2-3.9 6.9-9.6 6.9-16.4z"/>
  <path fill="#FBBC05" d="M10.6 28.1c-.6-1.8-.9-3.7-.9-5.6s.3-3.8.9-5.6L2.7 10.8C.9 14.3 0 18.1 0 22s.9 7.7 2.7 11.2l7.9-5.1z"/>
  <path fill="#EA4335" d="M24 48c6.5 0 12-2.1 16-5.7l-7.1-5.5c-2.2 1.5-5 2.3-8.9 2.3-6.4 0-11.8-3.6-14.4-8.9l-7.9 6.1C6.6 42.3 14.6 48 24 48z"/>
</svg>
