<svg width="116" height="112" viewBox="0 0 116 112" fill="none" xmlns="http://www.w3.org/2000/svg">
<ellipse cx="58" cy="56" rx="58" ry="56" fill="#273CE3"/>
<path d="M58 42.25C58 39.3326 56.806 36.5347 54.6806 34.4718C52.5552 32.4089 49.6725 31.25 46.6667 31.25H29.6667V72.5H49.5C51.7544 72.5 53.9164 73.3692 55.5104 74.9164C57.1045 76.4635 58 78.562 58 80.75M58 42.25V80.75M58 42.25C58 39.3326 59.1941 36.5347 61.3195 34.4718C63.4449 32.4089 66.3276 31.25 69.3334 31.25H86.3334V72.5H66.5C64.2457 72.5 62.0837 73.3692 60.4896 74.9164C58.8956 76.4635 58 78.562 58 80.75" stroke="#F3F3F3" stroke-width="4" stroke-linecap="round" stroke-linejoin="round"/>
</svg>
